<mxfile host="app.diagrams.net" agent="Mozilla/5.0 (Windows NT 10.0; Win64; x64) AppleWebKit/537.36 (KHTML, like Gecko) Chrome/140.0.0.0 Safari/537.36" version="28.2.3">
  <diagram name="PÃ¡gina-1" id="RbUS8o9OJ7nkaZEAhIF7">
    <mxGraphModel dx="2078" dy="2182" grid="1" gridSize="10" guides="1" tooltips="1" connect="1" arrows="1" fold="1" page="0" pageScale="1" pageWidth="827" pageHeight="1169" background="light-dark(#FFFFFF,#050112)" math="0" shadow="0">
      <root>
        <mxCell id="0" />
        <mxCell id="1" parent="0" />
        <mxCell id="6i5jWwC4zZT9hXB-V2WH-5" value="&lt;h1 style=&quot;margin-top: 0px;&quot;&gt;&amp;nbsp; &amp;nbsp;Application WEB&lt;/h1&gt;&lt;p&gt;We use basic technology&amp;nbsp; HTML,CSS and Javascript.&lt;/p&gt;&lt;p&gt;HTML: for create the main structure therefore is the base about all project.&lt;/p&gt;&lt;p&gt;CSS: for add some design.&lt;/p&gt;&lt;p&gt;JS: Interactive with the website&lt;/p&gt;&lt;p&gt;&lt;br&gt;&lt;/p&gt;&lt;div&gt;&lt;h1 style=&quot;margin-top: 0px;&quot;&gt;&amp;nbsp; &amp;nbsp; &amp;nbsp; &amp;nbsp; Objective&lt;/h1&gt;&lt;/div&gt;&lt;div&gt;Create a website with attractive design.&lt;/div&gt;&lt;div&gt;&lt;br&gt;&lt;/div&gt;" style="text;html=1;whiteSpace=wrap;overflow=hidden;rounded=0;fillColor=#d5e8d4;strokeColor=#82b366;" vertex="1" parent="1">
          <mxGeometry x="-20" y="-640" width="250" height="520" as="geometry" />
        </mxCell>
        <mxCell id="6i5jWwC4zZT9hXB-V2WH-12" value="&lt;h1 style=&quot;margin-top: 0px;&quot;&gt;&amp;nbsp; &amp;nbsp; &amp;nbsp; &amp;nbsp;ESP-32 (IOT)&lt;/h1&gt;&lt;p&gt;&lt;b&gt;Lenguage: C++&lt;/b&gt;&lt;/p&gt;&lt;p&gt;Library: WI-FI , DST1307(Clock)&lt;span style=&quot;background-color: transparent; color: light-dark(rgb(0, 0, 0), rgb(255, 255, 255));&quot;&gt;&amp;nbsp;&lt;/span&gt;&lt;/p&gt;&lt;div&gt;&lt;h1 style=&quot;margin-top: 0px;&quot;&gt;&amp;nbsp; &amp;nbsp; &amp;nbsp; &amp;nbsp;&lt;/h1&gt;&lt;h1 style=&quot;margin-top: 0px;&quot;&gt;&lt;br&gt;&lt;/h1&gt;&lt;div&gt;&lt;br&gt;&lt;/div&gt;&lt;h1 style=&quot;margin-top: 0px;&quot;&gt;&amp;nbsp; &amp;nbsp; &amp;nbsp; &amp;nbsp; &amp;nbsp;Objective&lt;/h1&gt;&lt;/div&gt;&lt;p&gt;Create three code, The first code create a memory direction in the card RFID that it have the student name, Numbercount (&quot;ID&quot;). optional (Grade and group).&lt;/p&gt;&lt;p&gt;the second code is verify if the memory direction is rigth and It show the rigth information.&lt;/p&gt;&lt;p&gt;The final code is send the information of assistancy to node.js,&amp;nbsp;&lt;span style=&quot;background-color: transparent; color: light-dark(rgb(0, 0, 0), rgb(255, 255, 255));&quot;&gt;through WI-FI&lt;/span&gt;&lt;/p&gt;&lt;p&gt;&lt;br&gt;&lt;/p&gt;&lt;p&gt;&lt;br&gt;&lt;/p&gt;&lt;p&gt;&lt;br&gt;&lt;/p&gt;" style="text;html=1;whiteSpace=wrap;overflow=hidden;rounded=0;fillColor=#ffe6cc;strokeColor=#d79b00;" vertex="1" parent="1">
          <mxGeometry x="310" y="-640" width="240" height="520" as="geometry" />
        </mxCell>
        <mxCell id="6i5jWwC4zZT9hXB-V2WH-13" value="&lt;h1 style=&quot;margin-top: 0px;&quot;&gt;&lt;span style=&quot;background-color: transparent; color: light-dark(rgb(0, 0, 0), rgb(255, 255, 255));&quot;&gt;&lt;font style=&quot;font-size: 25px;&quot;&gt;&amp;nbsp; &amp;nbsp; &amp;nbsp; &amp;nbsp; &amp;nbsp; &amp;nbsp; &amp;nbsp; &amp;nbsp; &amp;nbsp; &amp;nbsp; &amp;nbsp; &amp;nbsp; &amp;nbsp; &amp;nbsp;Backend&lt;/font&gt;&lt;/span&gt;&lt;/h1&gt;&lt;div&gt;&lt;b&gt;Lenguage: Javascript&lt;/b&gt;&lt;/div&gt;&lt;div&gt;&lt;br&gt;&lt;/div&gt;&lt;div&gt;&lt;div&gt;We&#39;ll use the framework &quot;Node.js&quot;, it&#39;s simple and we have worked with it.&lt;/div&gt;&lt;div&gt;&lt;br&gt;&lt;/div&gt;&lt;div&gt;Library:&lt;/div&gt;&lt;div&gt;&lt;br&gt;&lt;/div&gt;&lt;div&gt;-Http: The library http is a esenciality requirement in the backend, create the connection for any device even the esp-32 or another device, beside it can get up the server and show our website.&lt;/div&gt;&lt;div&gt;&lt;br&gt;&lt;/div&gt;&lt;div&gt;-Websockets : The use of websockets in our app is important. We show through our app the assistant in real time, so not it&#39;s so necessary use websockets in ESP-32&lt;/div&gt;&lt;div&gt;&lt;br&gt;&lt;/div&gt;&lt;div&gt;-Transform data in export file (CSV,EXCEL..etc).&lt;/div&gt;&lt;/div&gt;&lt;div&gt;&lt;br&gt;&lt;/div&gt;&lt;div&gt;&lt;div&gt;&lt;h1 style=&quot;margin-top: 0px;&quot;&gt;Objective&lt;/h1&gt;&lt;/div&gt;&lt;/div&gt;&lt;div&gt;Create a website with the objective that get up the server and do comunnication with the ESP-32 and received the assistency through the RFID.&lt;/div&gt;" style="text;html=1;whiteSpace=wrap;overflow=hidden;rounded=0;fillColor=#f8cecc;strokeColor=#b85450;" vertex="1" parent="1">
          <mxGeometry x="620" y="-640" width="490" height="520" as="geometry" />
        </mxCell>
        <mxCell id="6i5jWwC4zZT9hXB-V2WH-14" value="&lt;b&gt;&lt;font style=&quot;font-size: 25px;&quot;&gt;Phase Of Project&lt;/font&gt;&lt;/b&gt;" style="text;html=1;align=center;verticalAlign=middle;whiteSpace=wrap;rounded=0;fillColor=#dae8fc;strokeColor=#6c8ebf;" vertex="1" parent="1">
          <mxGeometry x="330" y="-880" width="230" height="110" as="geometry" />
        </mxCell>
        <mxCell id="6i5jWwC4zZT9hXB-V2WH-16" value="&lt;span style=&quot;font-size: 25px;&quot;&gt;&lt;b&gt;Comunication Beetween Device&lt;/b&gt;&lt;/span&gt;" style="text;html=1;align=center;verticalAlign=middle;whiteSpace=wrap;rounded=0;fillColor=#dae8fc;strokeColor=#6c8ebf;" vertex="1" parent="1">
          <mxGeometry x="330" y="30" width="230" height="110" as="geometry" />
        </mxCell>
        <mxCell id="6i5jWwC4zZT9hXB-V2WH-17" value="Website" style="swimlane;whiteSpace=wrap;html=1;" vertex="1" parent="1">
          <mxGeometry x="80" y="220" width="200" height="200" as="geometry" />
        </mxCell>
        <mxCell id="6i5jWwC4zZT9hXB-V2WH-22" value="Task Frontend" style="swimlane;fontStyle=0;childLayout=stackLayout;horizontal=1;startSize=30;horizontalStack=0;resizeParent=1;resizeParentMax=0;resizeLast=0;collapsible=1;marginBottom=0;whiteSpace=wrap;html=1;" vertex="1" parent="1">
          <mxGeometry x="35" y="-300" width="140" height="90" as="geometry" />
        </mxCell>
        <mxCell id="6i5jWwC4zZT9hXB-V2WH-23" value="-Create stucture" style="text;strokeColor=none;fillColor=none;align=left;verticalAlign=middle;spacingLeft=4;spacingRight=4;overflow=hidden;points=[[0,0.5],[1,0.5]];portConstraint=eastwest;rotatable=0;whiteSpace=wrap;html=1;" vertex="1" parent="6i5jWwC4zZT9hXB-V2WH-22">
          <mxGeometry y="30" width="140" height="30" as="geometry" />
        </mxCell>
        <mxCell id="6i5jWwC4zZT9hXB-V2WH-24" value="-Create Design" style="text;strokeColor=none;fillColor=none;align=left;verticalAlign=middle;spacingLeft=4;spacingRight=4;overflow=hidden;points=[[0,0.5],[1,0.5]];portConstraint=eastwest;rotatable=0;whiteSpace=wrap;html=1;" vertex="1" parent="6i5jWwC4zZT9hXB-V2WH-22">
          <mxGeometry y="60" width="140" height="30" as="geometry" />
        </mxCell>
      </root>
    </mxGraphModel>
  </diagram>
</mxfile>
